# AST/ASF file generated using VICON BodyLanguage
# -----------------------------------------------
:version 1.10
:name VICON
:units
  mass 1.0
  length 0.45
  angle deg
:documentation
   .ast/.asf automatically generated from VICON data using
   VICON BodyBuilder and BodyLanguage model FoxedUp or BRILLIANT.MOD
:root
   order TX TY TZ RX RY RZ
   axis XYZ
   position 0 0 0  
   orientation 0 0 0 
:bonedata
  begin
     id 1 
     name lhipjoint
     direction 0.558404 -0.748506 0.357664 
     length 2.4234 
     axis 0 0 0  XYZ
  end
  begin
     id 2 
     name lfemur
     direction 0.34202 -0.939693 0  
     length 7.14567  
     axis 0 0 20  XYZ
    dof rx ry rz
    limits (-160.0 20.0)
           (-70.0 70.0)
           (-60.0 70.0)
  end
  begin
     id 3 
     name ltibia
     direction 0.34202 -0.939693 0   
     length 8.13956   
     axis 0 0 20   XYZ
    dof rx
    limits (-10.0 170.0)
  end
  begin
     id 4 
     name lfoot
     direction 0.0791314 -0.217412 0.972867   
     length 2.00134   
     axis -90 7.62852e-016 20   XYZ
    dof rx rz
    limits (-45.0 90.0)
           (-70.0 20.0)
  end
  begin
     id 5 
     name ltoes
     direction 1.53547e-011 -4.21922e-011 1   
     length 1.00735   
     axis -90 7.62852e-016 20   XYZ
    dof rx
    limits (-90.0 20.0)
  end
  begin
     id 6 
     name rhipjoint
     direction -0.496392 -0.78327 0.374276   
     length 2.31584  
     axis 0 0 0  XYZ 
  end
  begin
     id 7 
     name rfemur
     direction -0.34202 -0.939693 0   
     length 7.47417   
     axis 0 0 -20   XYZ
    dof rx ry rz
    limits (-160.0 20.0)
           (-70.0 70.0)
           (-70.0 60.0)
  end
  begin
     id 8 
     name rtibia
     direction -0.34202 -0.939693 0   
     length 7.69071   
     axis 0 0 -20   XYZ
    dof rx
    limits (-10.0 170.0)
 end
 begin
     id 9 
     name rfoot
     direction -0.103069 -0.28318 0.953512   
     length 2.16135  
     axis -90 -7.62852e-016 -20   XYZ
    dof rx rz
    limits (-45.0 90.0)
           (-20.0 70.0)
  end
  begin
     id 10 
     name rtoes
     direction -1.53581e-011 -4.21904e-011 1   
     length 1.07867   
     axis -90 -7.62852e-016 -20   XYZ
    dof rx
    limits (-90.0 20.0)
  end
  begin
     id 11 
     name lowerback
     direction -0.0258961 0.994776 -0.0987407   
     length 2.19412   
     axis 0 0 0   XYZ
    dof rx ry rz
    limits (-20.0 45.0)
           (-30.0 30.0)
           (-30.0 30.0)
  end
  begin
     id 12 
     name upperback
     direction 0.0402454 0.999185 0.00320666   
     length 2.18445   
     axis 0 0 0   XYZ
    dof rx ry rz
    limits (-20.0 45.0)
           (-30.0 30.0)
           (-30.0 30.0)
  end
  begin
     id 13 
     name thorax
     direction 0.0519376 0.997415 0.0496558   
     length 2.21487   
     axis 0 0 0   XYZ
    dof rx ry rz
    limits (-20.0 45.0)
           (-30.0 30.0)
           (-30.0 30.0)
  end
  begin
     id 14 
     name lowerneck
     direction -0.0921276 0.983211 0.157506   
     length 1.61201   
     axis 0 0 0   XYZ
    dof rx ry rz
    limits (-20.0 45.0)
           (-30.0 30.0)
           (-30.0 30.0)
  end
  begin
     id 15 
     name upperneck
     direction 0.0820814 0.98162 -0.172292   
     length 1.65275   
     axis 0 0 0   XYZ
    dof rx ry rz
    limits (-20.0 45.0)
           (-30.0 30.0)
           (-30.0 30.0)
  end
  begin
     id 16
     name head
     direction 0.0336554 0.996413 -0.0776455  
     length 1.66415  
     axis 0 0 0   XYZ
    dof rx ry rz
    limits (-20.0 45.0)
           (-30.0 30.0)
           (-30.0 30.0)
  end
  begin
     id 17 
     name lclavicle
     direction 0.94696 0.284418 -0.149576  
     length 3.41447  
     axis 0 0 0   XYZ
    dof ry rz
    limits (-20.0 10.0)
           (0.0 20.0)
  end
  begin
     id 18 
     name lhumerus
     direction 1 -0.000130264 -9.81312e-005   
     length 5.19964   
     axis 180 -30 -90   XYZ
    dof rx ry rz
    limits (-60.0 90.0)
           (-90.0 90.0)
           (-90.0 90.0)
  end
  begin
     id 19
     name lradius
     direction 1 -4.48961e-011 1.43854e-026   
     length 3.32189   
     axis 180 -30 -90   XYZ
    dof rx
    limits (-10.0 170.0)
  end
  begin
     id 20
     name lwrist
     direction 1 -4.48958e-011 3.1502e-026   
     length 1.66095   
     axis -1.97692e-014 90 90   XYZ
    dof ry
    limits (-180.0 0.0)
 end
  begin
     id 21 
     name lhand
     direction 1 -4.48927e-011 6.3004e-026   
     length 0.645616   
     axis -4.02019e-014 90 90   XYZ
    dof rx rz
    limits (-90.0 90.0)
           (-45.0 45.0)
  end
  begin
     id 22 
     name lfingers
     direction 1 -4.4904e-011 1.26008e-025   
     length 0.520512   
     axis -8.04039e-014 90 90   XYZ
    dof rx
    limits (0.0 90.0)
  end
  begin
     id 23
     name lthumb
     direction 0.707107 -6.34947e-011 0.707107   
     length 0.747354   
     axis -90 45 2.85299e-015   XYZ
    dof rx rz
    limits (-45.0 45.0)
           (-45.0 45.0)
  end
  begin
     id 24 
     name rclavicle
     direction -0.909391 0.383475 -0.161107   
     length 3.25176  
     axis 0 0 0   XYZ 
    dof ry rz
    limits (-10.0 20.0)
           (-20.0 0.0)
  end
  begin
     id 25 
     name rhumerus
     direction -1 -4.48965e-011 -1.81384e-027  
     length 5.6595   
     axis 180 30 90   XYZ
    dof rx ry rz
    limits (-90.0 60.0)
           (-90.0 90.0)
           (-90.0 90.0)
  end
  begin
     id 26 
     name rradius
     direction -1 -4.48996e-011 -8.09397e-027   
     length 3.37604   
     axis 180 30 90   XYZ
    dof rx
    limits (-10.0 170.0)
  end
  begin
     id 27 
     name rwrist
     direction -1 -4.48927e-011 -1.56669e-026   
     length 1.68802   
     axis 1.21142e-014 -90 -90   XYZ
    dof ry
    limits (-180.0 0.0)
  end
  begin
     id 28
     name rhand
     direction -1 -4.48912e-011 -3.13339e-026   
     length 0.824702   
     axis 1.99937e-014 -90 -90   XYZ
    dof rx rz
    limits (-90.0 90.0)
           (-45.0 45.0)
  end
  begin
     id 29
     name rfingers
     direction -1 -4.49011e-011 -6.26677e-026   
     length 0.664896   
     axis 3.99874e-014 -90 -90   XYZ
    dof rx
    limits (0.0 90.0)
  end
  begin
     id 30
     name rthumb
     direction -0.707107 -6.34931e-011 0.707107   
     length 0.954662   
     axis -90 -45 -2.85299e-015   XYZ
    dof rx rz
    limits (-45.0 45.0)
           (-45.0 45.0)
  end
:hierarchy
  begin
    root lhipjoint rhipjoint lowerback
    lhipjoint lfemur
    lfemur ltibia
    ltibia lfoot
    lfoot ltoes
    rhipjoint rfemur
    rfemur rtibia
    rtibia rfoot
    rfoot rtoes
    lowerback upperback
    upperback thorax
    thorax lowerneck lclavicle rclavicle
    lowerneck upperneck
    upperneck head
    lclavicle lhumerus
    lhumerus lradius
    lradius lwrist
    lwrist lhand lthumb
    lhand lfingers
    rclavicle rhumerus
    rhumerus rradius
    rradius rwrist
    rwrist rhand rthumb
    rhand rfingers
  end

#!OML:ASF F:\VICON\USERDATA\INSTALL\rory3\rory3.ASF
:FULLY-SPECIFIED
:DEGREES
240
root 10.4341 17.5893 -17.0066 15.7574 -53.1911 -8.85195
lowerback 7.44752 -0.879432 -5.47163
upperback 1.96714 -1.54395 2.70212
thorax -1.91318 -0.774446 6.03986
lowerneck -12.5898 1.36264 -8.36105
upperneck 28.3982 0.646081 10.1202
head 11.1286 0.459027 5.2475
rclavicle -1.95803e-014 -6.75868e-015
rhumerus -37.4674 -20.337 -70.3543
rradius 37.6453
rwrist -14.8274
rhand -12.9315 18.1776
rfingers 7.12502
rthumb 13.1593 -11.3871
lclavicle -1.95803e-014 -6.75868e-015
lhumerus -15.9284 24.951 77.1093
lradius 24.2724
lwrist -9.50025
lhand -3.35863 32.7472
lfingers 7.12502
lthumb 22.3697 61.4721
rfemur -38.3316 3.70591 17.9919
rtibia 59.3264
rfoot -14.4574 -3.24883
rtoes 18.6871
lfemur -15.5949 6.17478 -23.3757
ltibia 36.9181
lfoot -29.8359 19.1799
ltoes 10.4077
241
root 10.3992 17.5831 -16.9585 15.8506 -53.1188 -8.76886
lowerback 7.4115 -0.898534 -5.48668
upperback 1.95234 -1.56888 2.68037
thorax -1.90513 -0.786485 6.02667
lowerneck -12.359 1.36775 -8.60943
upperneck 28.1552 0.638584 10.3843
head 10.9845 0.460401 5.37144
rclavicle 1.40143e-014 -4.77083e-015
rhumerus -37.5917 -20.7832 -70.1154
rradius 37.6097
rwrist -14.7506
rhand -12.6386 18.3174
rfingers 7.12502
rthumb 13.4415 -11.2289
lclavicle 1.40143e-014 -4.77083e-015
lhumerus -15.5199 24.3996 77.2321
lradius 24.0245
lwrist -9.08919
lhand -3.84527 32.5012
lfingers 7.12502
lthumb 21.9025 61.2814
rfemur -38.5557 3.81669 17.8319
rtibia 59.2916
rfoot -14.8331 -2.8261
rtoes 21.2157
lfemur -15.4786 5.80061 -23.4928
ltibia 36.7811
lfoot -30.0333 19.4432
ltoes 10.7667
242
root 10.3593 17.5775 -16.9085 15.7927 -53.0556 -8.5464
lowerback 7.36702 -1.03726 -5.64331
upperback 1.98498 -1.76374 2.6273
thorax -1.81483 -0.887579 6.07378
lowerneck -12.356 1.48813 -8.61732
upperneck 28.0248 0.809397 10.4335
head 10.9131 0.545764 5.40349
rclavicle -2.70347e-014 2.62396e-014
rhumerus -37.5031 -21.1322 -70.1948
rradius 37.5269
rwrist -14.5644
rhand -12.309 18.3828
rfingers 7.12502
rthumb 13.7593 -11.1423
lclavicle -2.70347e-014 2.62396e-014
lhumerus -15.4229 25.1772 77.1635
lradius 24.0275
lwrist -9.57376
lhand -4.19672 32.4277
lfingers 7.12502
lthumb 21.565 61.247
rfemur -38.7431 3.71199 17.6663
rtibia 59.2832
rfoot -15.1262 -2.59853
rtoes 22.9099
lfemur -15.2732 5.39492 -23.6985
ltibia 36.606
lfoot -30.3012 19.702
ltoes 11.3923
243
root 10.319 17.57 -16.8688 15.7194 -53.0382 -8.18032
lowerback 7.31337 -1.04605 -5.93199
upperback 1.9916 -1.79588 2.48072
thorax -1.7686 -0.90425 6.08452
lowerneck -12.3421 1.46412 -8.61928
upperneck 27.87 0.709102 10.7021
head 10.8601 0.533428 5.48482
rclavicle 4.83047e-014 3.97569e-015
rhumerus -37.5484 -21.3981 -70.329
rradius 37.5767
rwrist -14.7428
rhand -12.1899 18.4699
rfingers 7.12502
rthumb 13.874 -11.0474
lclavicle 4.83047e-014 3.97569e-015
lhumerus -15.2044 25.6702 77.1867
lradius 24.0202
lwrist -10.1817
lhand -4.33677 32.1433
lfingers 7.12502
lthumb 21.4305 60.978
rfemur -39.1231 3.59586 17.4509
rtibia 59.2339
rfoot -15.3389 -2.55812
rtoes 20.4705
lfemur -15.2221 5.47602 -23.9724
ltibia 36.4566
lfoot -30.3043 19.7767
ltoes 11.0411
244
root 10.2769 17.5589 -16.8264 15.9058 -53.1054 -8.20588
lowerback 7.22595 -0.945226 -5.97556
upperback 2.0255 -1.66068 2.4285
thorax -1.70502 -0.839754 6.04013
lowerneck -12.1516 1.37011 -9.14946
upperneck 27.6556 0.503893 11.4091
head 10.7523 0.46483 5.80581
rclavicle -5.06901e-014 1.19271e-015
rhumerus -37.7127 -21.58 -70.2113
rradius 37.6685
rwrist -14.6484
rhand -12.461 18.5942
rfingers 7.12502
rthumb 13.6127 -10.9407
lclavicle -5.06901e-014 1.19271e-015
lhumerus -14.6317 24.7528 77.3256
lradius 23.7046
lwrist -9.47756
lhand -4.34364 31.8754
lfingers 7.12502
lthumb 21.4239 60.7109
rfemur -39.4768 3.55836 17.5433
rtibia 59.1262
rfoot -15.4035 -2.31528
rtoes 17.9452
lfemur -15.142 5.95371 -23.984
ltibia 36.3536
lfoot -30.3072 19.599
ltoes 10.276
245
root 10.2355 17.5475 -16.777 16.254 -53.095 -8.52691
lowerback 7.27214 -1.04073 -5.92558
upperback 1.9668 -1.78385 2.61062
thorax -1.76903 -0.89797 6.21655
lowerneck -11.8027 1.49237 -9.73818
upperneck 27.4826 0.719891 11.7028
head 10.5794 0.530675 6.02478
rclavicle 2.70347e-014 3.97569e-015
rhumerus -37.744 -21.3343 -70.0247
rradius 37.5865
rwrist -14.088
rhand -12.8263 18.6803
rfingers 7.12502
rthumb 13.2606 -10.8779
lclavicle 2.70347e-014 3.97569e-015
lhumerus -14.6772 25.0287 77.3115
lradius 23.6493
lwrist -9.28145
lhand -4.01728 32.0623
lfingers 7.12502
lthumb 21.7374 60.8618
rfemur -39.6809 3.57599 17.8056
rtibia 58.9818
rfoot -15.4356 -1.94052
rtoes 16.1376
lfemur -14.9847 6.26701 -23.7994
ltibia 36.2883
lfoot -30.4907 19.3157
ltoes 10.0662
246
root 10.1955 17.5368 -16.7237 16.4746 -52.9686 -8.66077
lowerback 7.45446 -1.31194 -6.03856
upperback 1.78294 -2.15906 2.86091
thorax -1.99061 -1.07187 6.58749
lowerneck -11.426 1.71792 -9.85549
upperneck 27.4103 1.16363 11.2449
head 10.4252 0.662561 5.90434
rclavicle 7.7526e-015 9.93923e-015
rhumerus -37.6924 -20.7093 -69.9247
rradius 37.4663
rwrist -13.845
rhand -12.7638 18.6928
rfingers 7.12502
rthumb 13.3209 -10.8614
lclavicle 7.7526e-015 9.93923e-015
lhumerus -15.3316 26.3641 77.0681
lradius 23.9642
lwrist -9.79265
lhand -3.67007 32.2719
lfingers 7.12502
lthumb 22.0708 61.0324
rfemur -39.8726 3.55605 17.9198
rtibia 58.8335
rfoot -15.5901 -1.82653
rtoes 15.3833
lfemur -14.8397 6.31737 -23.7315
ltibia 36.221
lfoot -30.7306 19.0589
ltoes 10.4099
247
root 10.1548 17.5262 -16.664 16.6496 -52.8832 -8.81486
lowerback 7.65848 -1.44807 -5.97081
upperback 1.70476 -2.34446 2.9578
thorax -2.1551 -1.15628 6.67726
lowerneck -11.447 1.79155 -9.5913
upperneck 27.4833 1.3458 10.7279
head 10.4465 0.71354 5.68803
rclavicle 4.73108e-014 -1.66979e-014
rhumerus -37.7315 -20.4264 -69.8482
rradius 37.4866
rwrist -13.854
rhand -12.6212 18.8249
rfingers 7.12502
rthumb 13.4584 -10.7203
lclavicle 4.73108e-014 -1.66979e-014
lhumerus -15.4401 26.8714 76.8767
lradius 23.9862
lwrist -9.8327
lhand -3.66308 32.3951
lfingers 7.12502
lthumb 22.0775 61.1548
rfemur -39.9856 3.48616 18.0316
rtibia 58.6887
rfoot -15.7512 -1.6303
rtoes 15.6115
lfemur -14.584 6.12019 -23.6819
ltibia 36.1331
lfoot -30.9821 19.0715
ltoes 10.7828
